<?xml version="1.0" encoding="utf-8"?>
<!-- Generator: Adobe Illustrator 16.0.0, SVG Export Plug-In . SVG Version: 6.00 Build 0)  -->
<!DOCTYPE svg PUBLIC "-//W3C//DTD SVG 1.1//EN" "http://www.w3.org/Graphics/SVG/1.1/DTD/svg11.dtd">
<svg version="1.1" id="Layer_1" xmlns="http://www.w3.org/2000/svg" xmlns:xlink="http://www.w3.org/1999/xlink" x="0px" y="0px"
	 width="500px" height="373.759px" viewBox="0 0 500 373.759" enable-background="new 0 0 500 373.759" xml:space="preserve">
<path fill="#C05344" stroke="#010101" stroke-width="3" stroke-miterlimit="10" d="M82.004,334.601
	c-1.015-0.066-1.714-0.535-1.997-1.543c0.283,1.008,0.981,1.477,1.992,1.543c-0.546,1.33-0.261,2.434,0.263,3.475
	C81.739,337.035,81.455,335.931,82.004,334.601z"/>
<path fill="#C05344" stroke="#010101" stroke-width="3" stroke-miterlimit="10" d="M395.932,153.493
	c0.547-0.4,1.096-0.803,1.644-1.203c-4.657-1.162-7.651-3.744-7.604-8.918c-1.174-2.791-4.215-1.766-6.146-3.006
	c-4.408-4.029-8.739-8.693-10.621-13.998c-2.448-6.904-8.005-10.475-13.218-11.24c-7.603-1.115-13.182-7.645-21.157-6.613
	c-0.521,0.066-1.551-0.484-1.635-0.896c-1.104-5.375-5.834-5.898-9.787-7.479c-1.074-0.432-2.124-1.176-1.831-2.402
	c1.138-4.764-2.778-5.668-5.517-7.494c-3.478-0.557-6.311-2.495-9.2-4.307c-4.14-0.192-8.278-0.378-12.417-0.581
	c-2.202-0.107-4.03-0.8-3.584-3.473c0.973-5.831-2.69-6.226-7.013-6.588c-4.784-0.4-9.508-1.488-14.28-2.101
	c-1.926-0.246-3.277-0.854-3.695-2.865c-0.006,0.003-0.012,0.006-0.018,0.01c3.902-4.612,2.813-12.18-2.685-18.675
	c0.002,0,0.004,0,0.007,0c-0.355-1.436-1.111-2.472-2.679-2.699c-0.517-1.143-1.115-2.135-2.632-1.405
	c-4.575-6.63-4.53-15.03-1.689-20.826c2.295-4.683,0.646-6.162-1.01-8.917c-0.895-1.487-2.089-2.792-3.146-4.18
	c-0.395,0.387-0.789,0.775-1.183,1.163c-0.765-0.556-1.53-1.111-2.294-1.667c0.313,7.388-0.497,14.628-2.845,21.667
	c-4.094-1.143-5.047,2.659-7.086,4.623c-2.148,2.07-3.513,5.254-7.364,4.442c-0.777-0.671-1.353-1.692-2.605-1.536
	c-0.186-1.567-0.628-2.878-2.602-2.664c0.557-1.386-0.327-2.037-1.374-2.606c0.04-0.43,0.014-0.855-0.081-1.277
	c-2.391-1.147-4.443-2.716-6.035-4.855c-1.167-0.375-2.332-0.752-3.496-1.129c-2.815-0.53-5.64-1.004-8.439-1.605
	c-2.022-0.434-3.608-0.576-5.198,1.442c-6.483,8.237-10.204,9.307-19.292,6.092c0.004-0.425,0.01-0.85,0.014-1.274l-0.026-0.021
	c-0.932-0.635-1.863-1.269-2.794-1.901c-3.338-2.157-5.751-2.386-6.628,2.51c-0.531,2.962-1.788,5.794-2.719,8.686
	c-2.121,0.682-3.601-2.412-6.189-0.977c0.542,2.141,2.615,3.657,2.387,5.96c-6.008,2.827-5.015,9.924-8.881,14.588
	c-2.461-1.906-4.877-3.778-7.292-5.651c-2.82-2.75-5.241-0.731-7.714,0.647l-0.026,0.034c-0.934,0.77-1.062,1.626-0.282,2.583
	c0.008,0.906,0.016,1.813,0.024,2.717c-4.491,0.91-6.554,4.611-9.021,7.85c-0.269,0.611-0.538,1.225-0.807,1.838
	c-5.416,3.637-0.804,7.7-0.492,11.581c1.564,2.979-0.443,5.35-1.339,7.911c-0.914-5.169-4.626-5.065-6.875-2.164
	c-4.32,5.574-10.028,10.414-11.63,17.809c-8.54-0.215-10.005,1.346-7.595,8.074c1.188,1.811,2.377,3.623,3.564,5.436
	c0.489,0.84,0.977,1.682,1.466,2.52c1.108,0.789,1.309,1.764,1.096,2.828c0.212-1.064,0.011-2.039-1.097-2.828
	c-3.145,1.855-6.291,3.713-9.435,5.568c-5.431,1.232-12.483-2.826-15.928,4.887c-2.234,0.656-3.861,1.85-3.925,4.428
	c-0.438,0.438-0.876,0.879-1.313,1.318v-0.002c-0.464,0.449-0.928,0.896-1.394,1.344c0.019,0.004,0.033,0.002,0.051,0.006
	c-1.061,4.424-4.43,6.957-7.799,9.49c-0.311-0.305-0.613-0.617-0.905-0.939c-2.088,0.564-4.521,2.121-6.205,1.531
	c-8.989-3.139-11.173,2.006-12.136,9.166c-0.143,1.053-0.719,2.045-1.095,3.066l0,0c-6.663,9.59-6.727,12.166-0.479,19.355
	c0.001,0,0.002-0.002,0.003-0.002c0.55,0.795,1.097,1.596,1.644,2.395c2.47,4.569,0.638,6.387-4.071,6.422
	c-3.334,0.02-6.351-1.271-9.457-2.201c-2.407-1.9-5.286-1.648-7.431-0.289c-5.244,3.326-10.478,2.066-15.847,0.955
	c-2.342-0.486-4.71-1.084-7.079-1.15c-7.479-0.209-9.153,2.908-5.414,9.758c0.001,0,0.002-0.002,0.003-0.002
	c0.445,0.439,0.888,0.879,1.331,1.322c7.16,8.83,18.827,8.316,27.792,13.402c0,0,0.001-0.002,0.002-0.002
	c1.408,2.359,4.101,2.205,6.213,3.203c5.414,2.555,12.147,2.164,16.389,7.324c1.213,2.066,2.547,4.072,3.61,6.213
	c1.722,3.471,1.254,7.047-0.984,9.949c-2.273,2.949-4.203-0.52-6.253-1.107c-2.763-0.793-6.154-1.199-6.71,1.84
	c-1.054,5.752-4.495,11.684-0.433,17.625c0.001,0,0.002-0.002,0.003-0.002c0.862,3.438-0.255,6.881-0.146,10.197
	c0.189,5.771-4.149,12.258,1.954,17.363c2.342,1.863,5.037,2.398,7.979,2.373c4.369-0.039,8.763-0.145,13.102,0.268
	c4.369,0.414,6.975,2.207,4.619,7.385c-4.263,9.365-3.418,11.141,6.212,15.127c0.124-0.123,0.249-0.246,0.374-0.369
	c-0.124,0.123-0.249,0.246-0.372,0.367c0.88,0.881,1.758,1.764,2.637,2.645c0.579,2.664,0.569,5.201-1.56,7.283
	c-5.341,2.398-5.924,6.34-3.55,11.164c1.417,2.877,2.447,6.012,5.06,8.154c0.402-0.355,0.804-0.709,1.206-1.066
	c0,0.002,0,0.002,0.001,0.002c-0.402,0.355-0.804,0.709-1.206,1.064c0.419,0.473,0.838,0.943,1.257,1.42
	c0.398-0.449,0.797-0.896,1.197-1.344c3.101,3.268,2.605,6.186-0.725,8.986c-1.252,1.055-3.069,1.941-2.054,4.266
	c0.959,2.191,15.004,11.854,16.098,10.615c3.862-4.373,11.854-4.627,12.35-12.25c0.448-0.887,0.895-1.771,1.344-2.656
	c5.739-0.088,11.481,3.432,17.217,0.01c3.254-0.289,5.83-3.164,9.346-2.457c3.409-0.553,4.338-3.387,5.531-5.992
	c0.729-1.588,1.597-4.348,3.06-3.896c6.084,1.875,9.759-3.846,15.244-4.146c7.744-0.424,7.977-1.051,5.157-8.5
	c-1.632-4.309-1.446-7.014,3.348-8.664c1.784-0.613,3.143-2.367,4.83-3.375c6.019-3.602,11.93-1.07,12.983,5.553
	c0.222,1.4,0.628,2.406,1.913,3.182c7.924,4.773,13.248,1.996,14.297-7.52c2.213,0.887,4.479,1.658,6.624,2.686
	c7.749,3.713,7.8,3.758,9.415-4.617c0.721-3.736,1.706-6.906,6.526-6.109c0.367,1.809,2.119,1.887,3.295,2.73
	c5.57,3.998,11.927,2.145,17.967,2.631c0.318-1.613-1.33-2.203-1.777-3.416l-0.103-0.348c-1.02-1.16-0.76-2.15-0.133-3.096
	c-0.627,0.943-0.886,1.936,0.137,3.096c-0.004,0,0.099,0.348,0.099,0.346c3.635-2.164,4.895-5.73,5.667-9.584
	c3.034-1.432,5.469-1.313,6.865,2.324c0.701,1.824,1.504,3.74,3.801,4.205c6.963-4.986,18.495-5.004,18.806-17.299
	c0.01-0.396,1.352-0.762,2.072-1.143c1.917-2.182,3.083-0.238,4.412,0.805c0.898,6.176,5.374,8.279,10.708,9.406
	c-0.17-5.51-5.962-5.547-8.509-8.742c0.365-0.453,0.73-0.906,1.095-1.359c3.685,3.008,6.981,4.133,9.17-1.637
	c0.245-0.648,1.386-0.959,2.109-1.426l-0.075,0.021c4.534-3.705,11.033-4.271,14.153-10.586c2.342-4.742,7.311-7.449,12.592-3.184
	c5.458,4.414,11.889,5.133,18.391,5.99c6.617,0.873,11.976-3.145,11.863-9.51c-0.072-4.191,1.712-5.447,5.475-5.338
	c2.19,0.063,4.456,0.094,6.572-0.377c3.532-0.781,5.443-2.604,2.665-6.205c0.412-2.195-0.63-2.939-2.653-2.697
	c-0.334-3.215-4.004-3.01-5.356-5.18c-3.577-1.539-2.544-4.012-1.328-6.527c1.354-2.799,2.324-5.451,1.015-8.768
	c-3.705-9.373-3.151-10.326,6.908-11.281c7.079-0.674,6.652-7.299,9.598-11.229c2.094-2.795,0.129-4.658-1.707-6.773
	c-3.805-4.389,43.048,3.006,48.299,1.15c4.592-1.623,63.905-9.031,64.497-13.498c6.113-3.682-12.008-72.2-9-77.997
	C489.37,103.353,405.533,156.552,395.932,153.493z M82,334.601c-1.01-0.066-1.709-0.535-1.992-1.543
	c0.283,1.008,0.981,1.477,1.997,1.543c-0.549,1.33-0.266,2.434,0.258,3.475C81.738,337.035,81.453,335.931,82,334.601z"/>
<path fill="#C05344" stroke="#010101" stroke-width="3" stroke-miterlimit="10" d="M189.716,28.623
	c-0.116-0.462-1.061-1.176-1.356-1.064c-3.103,1.166-1.906,3.978-2.241,6.211c-0.032,0.215-0.006,0.439-0.007,0.66l0.026,0.021
	C189.386,33.77,190.492,31.718,189.716,28.623z"/>
<g enable-background="new    ">
	<path fill="#010101" d="M163.697,205.556h-7.734l-2.492-7.627h-12.096l-2.449,7.627h-7.691l12.182-33.28h8.336L163.697,205.556z
		 M151.795,192.451l-3.781-11.538c-0.244-0.73-0.416-1.697-0.516-2.9h-0.193c-0.086,0.975-0.279,1.912-0.58,2.814l-3.803,11.624
		H151.795z"/>
	<path fill="#010101" d="M174.998,193.955v11.602h-7.09v-33.28h11.451c8.278,0,12.418,3.51,12.418,10.527
		c0,3.409-1.25,6.141-3.749,8.196c-2.5,2.057-5.625,3.041-9.378,2.955H174.998z M174.998,177.776v10.743h3.072
		c4.168,0,6.252-1.812,6.252-5.436c0-3.537-2.063-5.307-6.188-5.307H174.998z"/>
	<path fill="#010101" d="M194.742,189.357c0-5.213,1.521-9.457,4.565-12.73c3.043-3.272,7.064-4.909,12.063-4.909
		c4.755,0,8.583,1.583,11.483,4.748c2.9,3.166,4.351,7.233,4.351,12.204c0,5.186-1.508,9.393-4.522,12.621
		c-3.015,3.23-6.965,4.846-11.849,4.846c-4.77,0-8.644-1.564-11.623-4.695C196.231,198.312,194.742,194.285,194.742,189.357z
		 M202.197,188.97c0,3.236,0.78,5.883,2.342,7.938c1.561,2.057,3.702,3.084,6.424,3.084c2.778,0,4.941-0.984,6.488-2.955
		c1.547-1.969,2.32-4.615,2.32-7.938c0-3.466-0.752-6.206-2.256-8.218c-1.504-2.012-3.624-3.019-6.359-3.019
		c-2.779,0-4.967,1.031-6.563,3.094C202.996,183.019,202.197,185.69,202.197,188.97z"/>
	<path fill="#010101" d="M231.309,197.177c2.678,2.221,5.722,3.33,9.131,3.33c1.934,0,3.387-0.334,4.361-1
		c0.974-0.666,1.461-1.521,1.461-2.566c0-0.902-0.387-1.754-1.16-2.557s-2.814-1.891-6.123-3.266
		c-5.199-2.205-7.799-5.415-7.799-9.625c0-3.094,1.178-5.496,3.534-7.208c2.356-1.711,5.475-2.567,9.356-2.567
		c3.251,0,5.979,0.423,8.186,1.268v6.66c-2.234-1.518-4.849-2.277-7.842-2.277c-1.748,0-3.144,0.319-4.189,0.956
		c-1.046,0.638-1.568,1.493-1.568,2.567c0,0.859,0.358,1.651,1.074,2.374c0.716,0.724,2.485,1.701,5.307,2.933
		c3.309,1.418,5.582,2.915,6.821,4.491s1.858,3.451,1.858,5.629c0,3.193-1.132,5.629-3.395,7.305
		c-2.263,1.676-5.479,2.514-9.646,2.514c-3.81,0-6.933-0.615-9.367-1.848V197.177z"/>
	<path fill="#010101" d="M266.371,172.276v33.28h-7.09v-33.28H266.371z"/>
	<path fill="#010101" d="M302.938,205.556h-7.734l-2.492-7.627h-12.096l-2.449,7.627h-7.691l12.182-33.28h8.336L302.938,205.556z
		 M291.035,192.451l-3.781-11.538c-0.244-0.73-0.416-1.697-0.516-2.9h-0.193c-0.086,0.975-0.279,1.912-0.58,2.814l-3.803,11.624
		H291.035z"/>
</g>
</svg>
