<?xml version="1.0" encoding="utf-8"?>
<!-- Generator: Adobe Illustrator 16.0.0, SVG Export Plug-In . SVG Version: 6.00 Build 0)  -->
<!DOCTYPE svg PUBLIC "-//W3C//DTD SVG 1.1//EN" "http://www.w3.org/Graphics/SVG/1.1/DTD/svg11.dtd">
<svg version="1.1" id="Layer_1" xmlns="http://www.w3.org/2000/svg" xmlns:xlink="http://www.w3.org/1999/xlink" x="0px" y="0px"
	 width="1000px" height="1000px" viewBox="0 0 1000 1000" enable-background="new 0 0 1000 1000" xml:space="preserve">
<path fill-rule="evenodd" clip-rule="evenodd" fill="#D33D3C" d="M842.096,319.393c-47.159,180.795-93.563,358.684-140.46,538.453
	c-129.83-133.406-258.176-265.289-387.593-398.272C489.994,412.864,664.449,366.555,842.096,319.393z"/>
<path fill-rule="evenodd" clip-rule="evenodd" fill="#C63A39" d="M210.633,889.313c28.847-140.883,57.472-280.684,86.637-423.128
	C430.735,603.389,563.054,739.414,697.628,877.76C533.757,881.65,372.796,885.467,210.633,889.313z"/>
<path fill-rule="evenodd" clip-rule="evenodd" fill="#D33D3C" d="M834.934,301.549c-176.479,46.827-352.961,93.654-531.463,141.02
	c28.13-126.535,55.88-251.36,84.001-377.858C537.23,143.115,686.247,221.13,835.267,299.146
	C835.153,299.949,835.044,300.749,834.934,301.549z"/>
<path fill-rule="evenodd" clip-rule="evenodd" fill="#D33D3C" d="M45.888,403.173c80.302,16.687,158.416,32.921,237.859,49.429
	c-27.378,127.566-54.632,254.554-81.886,381.541c-0.708-0.027-1.416-0.061-2.122-0.086
	C148.667,691.023,97.595,547.99,45.888,403.173z"/>
<path fill-rule="evenodd" clip-rule="evenodd" fill="#C63A39" d="M362.227,89.845c-26.514,119.385-52.385,235.869-78.55,353.682
	c-75.396-16.383-150.303-32.659-223.694-48.605C160.151,293.815,260.168,192.859,362.227,89.845z"/>
<path fill-rule="evenodd" clip-rule="evenodd" fill="#C63A39" d="M734.05,826.926c40.083-154.199,79.644-306.379,119.808-460.886
	c1.971,4.38,3.249,6.666,4.059,9.107c28.76,86.5,57.433,173.025,86.29,259.49c1.808,5.41,1.797,8.803-3.09,13.043
	c-67.652,58.648-135.053,117.592-202.531,176.441C737.897,824.723,737.017,825.105,734.05,826.926z"/>
<path fill-rule="evenodd" clip-rule="evenodd" fill="#C63A39" d="M436.324,71.658c84.681,25.121,169.363,50.248,254.048,75.359
	c35.195,10.435,70.366,20.946,105.625,31.147c6.682,1.934,10.436,5.097,12.635,12.161c9.567,30.688,19.904,61.134,31.057,94.999
	C703.041,213.699,569.213,143.553,435.389,73.403C435.701,72.822,436.014,72.239,436.324,71.658z"/>
<path fill-rule="evenodd" clip-rule="evenodd" fill="#802E2F" d="M314.851,894.156c117.053-4.01,234.107-8.029,351.162-12.047
	c0.395,1.283,0.788,2.576,1.178,3.863c-17.836,23.465-35.466,47.332-53.742,69.979c-2.708,3.355-8.564,2.01-12.812,1.125
	c-68.656-14.268-137.29-28.783-205.923-43.32c-26.53-5.623-53.037-11.463-79.556-17.201
	C315.054,895.756,314.954,894.957,314.851,894.156z"/>
<path fill-rule="evenodd" clip-rule="evenodd" d="M613.313,985.197c-25.695-3.555-51.389-7.096-77.08-10.668
	c-48.533-6.748-97.058-13.541-145.59-20.271c-52.976-7.348-105.96-14.627-158.935-21.979c-10.783-1.496-21.501-3.598-32.324-4.645
	c-12.508-1.205-19.327-7.961-23.246-19.512c-28.655-84.496-57.561-168.906-86.359-253.357
	C61.807,572.742,34.035,490.647,5.756,408.729c-4.683-13.564-2.216-23.658,7.891-33.731
	C130.466,258.519,247.104,141.86,363.601,25.062c9.365-9.389,18.918-12.644,31.939-8.745
	C534.928,58.054,674.376,99.58,813.893,140.889c11.261,3.337,17.82,9.544,21.53,20.709
	c52.841,158.947,105.888,317.827,159.078,476.659c4.314,12.883,1.852,22.721-8.468,31.682
	c-78.017,67.727-155.848,135.668-233.731,203.545c-38.218,33.307-76.437,66.609-114.65,99.922
	C630.621,979.533,623.849,986.201,613.313,985.197z M842.096,319.393c-177.646,47.163-352.102,93.472-528.053,140.181
	c129.417,132.983,257.763,264.866,387.593,398.272C748.533,678.076,794.937,500.188,842.096,319.393z M216.137,881.057
	c154.833-3.672,308.518-7.313,464.98-11.025C552.626,737.982,426.29,608.148,298.858,477.191
	C271.01,613.152,243.679,746.586,216.137,881.057z M823.31,300.435c0.108-0.777,0.213-1.553,0.323-2.333
	C678.955,222.358,534.278,146.615,388.881,70.495c-27.302,122.814-54.244,244.004-81.555,366.853
	C480.629,391.361,651.971,345.898,823.31,300.435z M56.894,414.18c48.118,141.117,95.645,280.498,143.172,419.879
	c0.659,0.027,1.316,0.057,1.975,0.084c25.362-123.744,50.724-247.49,76.203-371.797C204.315,446.26,131.623,430.441,56.894,414.18z
	 M359.755,95.629c-99.271,100.2-196.557,198.398-293.989,296.744c71.387,15.51,144.246,31.341,217.583,47.276
	C308.801,325.057,333.965,211.753,359.755,95.629z M734.05,826.926c2.967-1.82,3.848-2.203,4.535-2.805
	c67.479-58.85,134.879-117.793,202.531-176.441c4.887-4.24,4.897-7.633,3.09-13.043c-28.857-86.465-57.53-172.99-86.29-259.49
	c-0.81-2.441-2.088-4.727-4.059-9.107C813.693,520.547,774.133,672.727,734.05,826.926z M479.446,89.565
	c-0.266,0.496-0.531,0.993-0.796,1.49c114.157,59.838,228.312,119.676,344.876,180.774c-9.514-28.888-18.332-54.859-26.492-81.037
	c-1.877-6.027-5.077-8.724-10.777-10.373c-30.076-8.702-60.078-17.668-90.098-26.569
	C623.917,132.429,551.683,110.995,479.446,89.565z M353.111,900.709c0.089,0.453,0.176,0.904,0.265,1.355
	c22.786,3.242,45.565,6.541,68.361,9.721c58.974,8.217,117.952,16.416,176.945,24.482c3.649,0.5,8.683,1.26,11.008-0.635
	c15.707-12.799,30.854-26.287,46.182-39.551c-0.334-0.727-0.673-1.455-1.012-2.182C554.277,896.17,453.694,898.441,353.111,900.709z
	"/>
<path fill-rule="evenodd" clip-rule="evenodd" fill="#FFFFFF" d="M451.125,337.404c22.179-5.742,44.493-11.023,66.461-17.482
	c7.515-2.208,10.428-0.14,12.826,6.331c2.325,6.268,5.354,12.271,8.699,19.811c-40.972,11.142-81.452,22.154-121.725,33.106
	c-11.951-21.627-6.749-53.783,10.912-75.076c8.563-10.323,16.481-21.251,23.925-32.417c6.902-10.356,6.043-21.294-0.794-31.552
	c-6.709-10.063-16.283-13.895-28.233-12.185c-14.507,2.076-20.061,9.348-17.819,23.746c0.58,3.724,1.424,7.409,2.3,11.889
	c-9.946,2.35-19.446,4.925-29.103,6.593c-1.928,0.334-5.902-2.363-6.488-4.375c-8.48-29.114-2.305-51.34,29.672-60.869
	c18.726-5.578,37.218-5.818,55.393,1.998c35.069,15.08,45.792,52.28,23.81,83.297c-6.848,9.661-14.802,18.535-21.768,28.121
	c-3.857,5.309-6.716,11.341-10.023,17.045C449.821,336.06,450.474,336.732,451.125,337.404z"/>
<path fill-rule="evenodd" clip-rule="evenodd" fill="#FFFFFF" d="M497.871,225.428c-1.4-34.192,12.707-48.063,40.911-51.227
	c19.949-2.238,37.433,2.834,51.673,17.539c26.793,27.671,44.636,59.841,49.538,98.503c2.046,16.158-4.121,28.227-18.206,36.021
	c-26.556,14.691-56.484,10.95-77.458-10.974C517.456,287.204,500.871,253.959,497.871,225.428z M550.02,196.833
	c-15.444,1.991-21.704,9.833-18.252,23.805c6.92,27.979,19.57,53.203,37.048,76.072c6.199,8.118,14.355,11.545,24.348,10.127
	c9.658-1.369,15.672-9.291,13.577-18.374c-6.858-29.717-19.946-56.599-39.175-80.175C563.36,203.131,555.952,200.584,550.02,196.833
	z"/>
<path fill-rule="evenodd" clip-rule="evenodd" fill="#FFFFFF" d="M598.738,446.74c-22.997,6.239-45.854,12.438-69.108,18.748
	c0.273,1.58,0.399,2.939,0.747,4.237c3.387,12.584,6.918,25.127,10.145,37.749c0.874,3.415,2.191,4.156,5.576,3.208
	c18.594-5.191,37.248-10.173,55.881-15.231c1.784-0.481,3.561-0.967,5.636-1.529c0.605,2.229,1.074,3.961,1.712,6.31
	c-1.922,0.52-3.693,0.999-5.471,1.481c-18.328,4.971-36.622,10.093-55.018,14.816c-4.518,1.162-5.173,2.937-3.935,7.164
	c3.826,13.109,7.243,26.334,10.818,39.521c0.441,1.625,0.888,3.258,1.487,5.473c2.272-0.618,4.047-1.102,5.816-1.582
	c20.148-5.46,40.299-10.939,60.453-16.391c5.473-1.479,5.843-1.174,6.246,5.303c-1.357,0.445-2.789,0.987-4.261,1.39
	c-22.876,6.227-45.78,12.331-68.604,18.716c-3.894,1.09-5.133,0.028-6.113-3.636c-9.543-35.634-19.203-71.236-28.977-106.808
	c-0.951-3.474-0.462-4.965,3.253-5.944c22.767-6.006,45.463-12.259,68.198-18.404C598.074,440.018,598.539,440.464,598.738,446.74z"
	/>
<path fill-rule="evenodd" clip-rule="evenodd" fill="#FFFFFF" d="M666.288,488.319c-3.14,8.139-6.21,15.911-9.155,23.726
	c-4.668,12.395-9.301,24.801-13.851,37.243c-1.565,4.263-4.918,5.067-9.8,5.366c9.058-23.861,17.923-47.191,26.973-71.004
	c-18.161-14.813-36.374-29.666-54.607-44.542c4.13-3.484,6.807-3.537,10.615-0.413c14.974,12.249,29.955,24.485,44.941,36.708
	c0.442,0.358,1.044,0.518,1.662,0.81c16.471-40.793,32.862-81.389,49.253-121.984c0.521,0.186,1.036,0.366,1.563,0.552
	c-1.459,4.298-2.859,8.618-4.366,12.896c-12.845,36.398-25.678,72.807-38.64,109.167c-1.307,3.676,0.076,5.552,2.797,7.726
	c17.871,14.291,35.62,28.745,53.391,43.16c0.211,0.178,0.255,0.556,0.366,0.846c-3.981,3.454-6.644,3.459-10.779,0.111
	c-16.116-13.065-32.254-26.109-48.385-39.155C667.828,489.178,667.297,488.935,666.288,488.319z"/>
<path fill-rule="evenodd" clip-rule="evenodd" fill="#FFFFFF" d="M433.955,496.563c0.999,3.692,2.007,7.387,3.001,11.082
	c8.004,29.708,16.022,59.413,23.973,89.132c0.545,2.05,2.234,4.536-1.513,5.725c-2.874,0.913-4.531,0.789-5.459-2.679
	c-9.723-36.236-19.6-72.427-29.338-108.661c-0.333-1.237,0.02-3.777,0.607-3.969c3.092-0.991,6.181-3.302,9.618-0.251
	c8.351,7.417,16.916,14.596,25.33,21.95c21.453,18.74,42.847,37.561,64.312,56.296c20.201,17.632,40.468,35.199,60.683,52.822
	c0.474,0.415,0.656,1.164,0.725,1.96c-52.706-38.431-100.764-82.423-150.724-124.098
	C434.764,496.104,434.359,496.333,433.955,496.563z"/>
<path fill-rule="evenodd" clip-rule="evenodd" fill="#FFFFFF" d="M749.751,405.735c0.652,2.404,1.139,4.193,1.626,5.983
	c8.961,33.031,17.928,66.064,26.864,99.105c0.581,2.133,1.992,4.367-1.632,5.674c-3.977,1.425-4.861-0.553-5.706-3.716
	c-5.885-21.992-11.886-43.956-17.84-65.925c-3.047-11.212-6.087-22.426-9.128-33.642c-0.441-1.63-0.883-3.265-1.485-5.473
	c-13.733,3.728-26.975,7.317-40.089,10.877c-2.798-5.941-2.742-6.153,2.583-7.6c26.208-7.127,52.428-14.23,78.641-21.341
	c0.303-0.083,0.605-0.16,0.91-0.244c2.224-0.616,4.255-1.171,5.144,2.046c0.891,3.192-1.014,3.734-3.314,4.351
	c-10.315,2.756-20.611,5.571-30.919,8.368C753.764,404.647,752.119,405.093,749.751,405.735z"/>
</svg>
