<?xml version="1.0" encoding="utf-8"?>
<!-- Generator: Adobe Illustrator 16.0.0, SVG Export Plug-In . SVG Version: 6.00 Build 0)  -->
<!DOCTYPE svg PUBLIC "-//W3C//DTD SVG 1.1//EN" "http://www.w3.org/Graphics/SVG/1.1/DTD/svg11.dtd">
<svg version="1.1" xmlns="http://www.w3.org/2000/svg" xmlns:xlink="http://www.w3.org/1999/xlink" x="0px" y="0px"
	 width="2860.5px" height="1000px" viewBox="0 0 2860.5 1000" enable-background="new 0 0 2860.5 1000" xml:space="preserve">
<g id="Layer_1">
	<path fill="#D33D3C" d="M842.096,319.393c-47.158,180.794-93.563,358.684-140.46,538.453
		C571.806,724.44,443.46,592.557,314.043,459.574C489.994,412.864,664.449,366.555,842.096,319.393z"/>
	<path fill="#C63A39" d="M210.633,889.313c28.847-140.883,57.472-280.684,86.637-423.128
		C430.735,603.389,563.054,739.414,697.628,877.76C533.757,881.65,372.796,885.467,210.633,889.313z"/>
	<path fill="#D33D3C" d="M834.934,301.549c-176.479,46.827-352.961,93.654-531.462,141.021c28.129-126.535,55.879-251.36,84-377.858
		C537.23,143.115,686.247,221.13,835.268,299.146C835.153,299.949,835.044,300.749,834.934,301.549z"/>
	<path fill="#D33D3C" d="M45.888,403.173c80.302,16.688,158.416,32.921,237.859,49.429
		c-27.378,127.566-54.632,254.555-81.886,381.541c-0.708-0.026-1.416-0.061-2.122-0.086
		C148.667,691.023,97.595,547.99,45.888,403.173z"/>
	<path fill="#C63A39" d="M362.227,89.845c-26.514,119.385-52.385,235.869-78.55,353.683
		c-75.396-16.384-150.303-32.659-223.694-48.605C160.151,293.815,260.168,192.859,362.227,89.845z"/>
	<path fill="#C63A39" d="M734.05,826.926c40.083-154.199,79.645-306.379,119.808-460.886c1.972,4.38,3.25,6.666,4.06,9.107
		c28.76,86.5,57.433,173.025,86.29,259.49c1.808,5.41,1.797,8.804-3.09,13.043c-67.652,58.648-135.053,117.593-202.531,176.441
		C737.896,824.723,737.017,825.105,734.05,826.926z"/>
	<path fill="#C63A39" d="M436.324,71.658c84.681,25.121,169.363,50.248,254.048,75.359c35.195,10.435,70.366,20.946,105.625,31.147
		c6.682,1.934,10.436,5.097,12.635,12.161c9.567,30.688,19.904,61.134,31.058,94.999
		C703.041,213.699,569.213,143.553,435.389,73.403C435.701,72.822,436.014,72.239,436.324,71.658z"/>
	<path fill="#802E2F" d="M314.851,894.156c117.054-4.01,234.107-8.029,351.162-12.047c0.396,1.282,0.788,2.575,1.179,3.862
		c-17.836,23.466-35.467,47.332-53.742,69.979c-2.708,3.354-8.564,2.01-12.813,1.125c-68.656-14.269-137.29-28.783-205.923-43.32
		c-26.53-5.623-53.037-11.463-79.556-17.201C315.054,895.756,314.954,894.957,314.851,894.156z"/>
	<path d="M613.313,985.197c-25.694-3.556-51.389-7.097-77.079-10.668c-48.533-6.748-97.059-13.541-145.591-20.271
		c-52.976-7.348-105.959-14.627-158.935-21.979c-10.783-1.496-21.501-3.599-32.324-4.646c-12.508-1.205-19.327-7.961-23.246-19.512
		c-28.655-84.496-57.561-168.906-86.359-253.357C61.807,572.742,34.035,490.647,5.756,408.729
		c-4.683-13.563-2.216-23.658,7.891-33.73C130.466,258.519,247.104,141.86,363.601,25.062c9.365-9.389,18.919-12.644,31.939-8.745
		C534.928,58.054,674.376,99.58,813.893,140.889c11.262,3.337,17.82,9.544,21.53,20.709
		c52.841,158.947,105.888,317.827,159.078,476.659c4.314,12.883,1.853,22.722-8.468,31.683
		c-78.018,67.727-155.848,135.668-233.731,203.545c-38.218,33.307-76.437,66.608-114.649,99.922
		C630.621,979.533,623.849,986.201,613.313,985.197z M842.096,319.393c-177.646,47.163-352.102,93.472-528.053,140.181
		C443.46,592.557,571.806,724.44,701.636,857.846C748.533,678.076,794.938,500.188,842.096,319.393z M216.137,881.057
		c154.833-3.672,308.518-7.313,464.98-11.024C552.626,737.982,426.29,608.148,298.858,477.191
		C271.01,613.152,243.679,746.586,216.137,881.057z M823.31,300.435c0.108-0.777,0.214-1.553,0.323-2.333
		C678.955,222.358,534.278,146.615,388.881,70.495c-27.302,122.814-54.244,244.004-81.555,366.853
		C480.629,391.361,651.971,345.898,823.31,300.435z M56.894,414.18c48.118,141.117,95.645,280.498,143.172,419.879
		c0.659,0.027,1.316,0.058,1.975,0.084c25.362-123.744,50.724-247.489,76.203-371.797C204.315,446.26,131.623,430.441,56.894,414.18
		z M359.755,95.629c-99.271,100.2-196.557,198.398-293.989,296.744c71.387,15.51,144.246,31.341,217.583,47.276
		C308.801,325.057,333.965,211.753,359.755,95.629z M734.05,826.926c2.967-1.819,3.849-2.203,4.535-2.805
		c67.479-58.85,134.879-117.793,202.531-176.441c4.887-4.239,4.896-7.633,3.09-13.043c-28.857-86.465-57.53-172.989-86.29-259.49
		c-0.811-2.441-2.088-4.727-4.059-9.107C813.693,520.547,774.133,672.727,734.05,826.926z M479.446,89.565
		c-0.267,0.496-0.531,0.993-0.796,1.49c114.156,59.838,228.312,119.676,344.876,180.774c-9.515-28.888-18.332-54.859-26.492-81.037
		c-1.877-6.027-5.077-8.724-10.777-10.373c-30.076-8.702-60.078-17.668-90.098-26.569
		C623.917,132.429,551.683,110.995,479.446,89.565z M353.111,900.709c0.089,0.453,0.176,0.904,0.265,1.355
		c22.786,3.241,45.565,6.541,68.361,9.721c58.974,8.217,117.952,16.416,176.944,24.481c3.649,0.5,8.684,1.261,11.009-0.635
		c15.706-12.799,30.854-26.287,46.182-39.551c-0.334-0.728-0.673-1.455-1.012-2.183C554.277,896.17,453.694,898.441,353.111,900.709
		z"/>
	<path fill="#FFFFFF" d="M451.125,337.404c22.179-5.742,44.493-11.023,66.461-17.482c7.515-2.208,10.428-0.14,12.826,6.331
		c2.325,6.268,5.354,12.271,8.699,19.811c-40.973,11.142-81.452,22.154-121.726,33.106c-11.951-21.627-6.749-53.783,10.912-75.076
		c8.563-10.323,16.481-21.251,23.925-32.417c6.902-10.355,6.043-21.294-0.794-31.552c-6.709-10.063-16.283-13.895-28.232-12.185
		c-14.507,2.076-20.062,9.348-17.819,23.746c0.58,3.724,1.424,7.409,2.3,11.889c-9.946,2.35-19.446,4.925-29.103,6.593
		c-1.929,0.334-5.902-2.363-6.488-4.375c-8.48-29.114-2.305-51.34,29.672-60.869c18.727-5.578,37.218-5.818,55.393,1.998
		c35.069,15.08,45.793,52.28,23.811,83.297c-6.848,9.661-14.802,18.535-21.768,28.121c-3.857,5.309-6.717,11.341-10.023,17.045
		C449.821,336.06,450.474,336.732,451.125,337.404z"/>
	<path fill="#FFFFFF" d="M497.871,225.428c-1.4-34.192,12.707-48.063,40.911-51.227c19.948-2.238,37.433,2.834,51.673,17.539
		c26.793,27.671,44.636,59.841,49.538,98.503c2.046,16.158-4.121,28.227-18.206,36.021c-26.557,14.691-56.484,10.95-77.458-10.974
		C517.456,287.204,500.871,253.959,497.871,225.428z M550.02,196.833c-15.443,1.991-21.703,9.833-18.252,23.805
		c6.92,27.979,19.57,53.203,37.049,76.072c6.198,8.118,14.354,11.545,24.348,10.127c9.658-1.369,15.672-9.291,13.577-18.374
		c-6.858-29.717-19.946-56.599-39.175-80.175C563.36,203.131,555.952,200.584,550.02,196.833z"/>
</g>
<g id="Layer_2">
	<path fill="#FFFFFF" d="M1971.067,275.082c-103.759,0.316-206.881,0.635-311.802,0.97c-0.632,6.958-1.622,12.809-1.627,18.664
		c0.056,56.744,0.776,113.473,0.127,170.201c-0.166,15.352,4.531,19.946,19.841,19.772c84.047-0.871,168.127,0.195,252.189-0.084
		c8.048-0.01,16.068-0.053,25.433-0.081c0.026,10.061,0.057,16.88,0.087,27.469c-8.673,0.021-16.662,0.042-24.682,0.061
		c-82.688,0.258-165.403,1.185-248.096,0.32c-20.312-0.204-25.067,6.525-24.624,25.697c1.313,59.442,0.785,118.917,0.964,178.412
		c0.022,7.325,0.067,14.7,0.083,24.692c10.259-0.035,18.274-0.068,26.246-0.098c90.898-0.264,181.826,0.401,272.734,0.184
		c24.689-0.052,25.9,0.65,20.29,28.343c-6.207,0.344-12.841,1.005-19.484,1.041c-103.228,0.416-206.449,0.28-309.633,1.41
		c-17.604,0.197-21.628-5.664-21.618-22.18c0.024-160.619-0.479-321.254-1.51-481.882c-0.081-15.676,3.654-21.399,20.383-21.327
		c102.521,0.392,205.023-0.331,307.567-0.558C1975.85,246.057,1977.293,248.458,1971.067,275.082z"/>
	<path fill="#FFFFFF" d="M2208.31,526.084c-22.369,30.688-44.046,59.918-65.238,89.473
		c-33.608,46.868-67.063,93.818-100.226,141.026c-11.386,16.164-26.4,15.774-47.266,11.527
		c64.993-90.15,128.563-178.28,193.463-268.239c-59.697-82.765-119.557-165.764-179.478-248.878
		c21.3-10.001,32.612-7.203,45.109,10.225c49.176,68.392,98.396,136.73,147.651,205.042c1.455,2.001,3.808,3.351,6.076,5.273
		c115.255-153.009,229.936-305.282,344.62-457.551c1.984,1.37,3.943,2.705,5.943,4.083c-10.975,16.433-21.726,33.027-32.89,49.318
		c-95.041,138.614-190.047,277.287-285.535,415.598c-9.643,13.99-5.941,23.448,3.06,35.649
		c59.052,80.254,117.415,161.039,175.913,241.701c0.693,0.983,0.451,2.618,0.595,3.969c-20.64,10.034-31.845,7.054-45.47-11.688
		c-53.055-73.104-106.236-146.151-159.377-219.208C2213.815,531.426,2211.863,529.805,2208.31,526.084z"/>
	<path fill="#FFFFFF" d="M1221.854,298.932c0.036,16.653,0.116,33.34,0.134,49.996c0.182,133.963,0.436,267.939,0.384,401.894
		c-0.022,9.246,4.288,21.592-12.817,22.379c-13.117,0.599-19.941-1.8-19.937-17.42c-0.061-163.365-0.811-326.718-0.945-490.08
		c-0.006-5.585,4.341-15.866,7.023-16.013c14.124-0.682,29.723-6.923,40.738,9.783c26.764,40.608,54.699,80.454,81.8,120.865
		c69.11,102.996,137.883,206.265,207.058,309.243c65.085,96.934,130.531,193.646,195.688,290.554
		c1.526,2.283,1.453,5.639,0.846,9.061c-178.375-221.033-330.914-460.212-494.084-691.796
		C1225.769,297.917,1223.813,298.421,1221.854,298.932z"/>
	<path fill="#FFFFFF" d="M2652.406,272.79c0.042,10.847,0.076,18.917,0.107,27.003c0.467,149.021,0.947,298.056,1.299,447.091
		c0.043,9.636,3.467,20.615-13.252,22.035c-18.332,1.506-20.824-7.809-20.811-22.061c0.026-99.13,0.536-198.278,0.252-297.376
		c-0.175-50.6-0.328-101.195-0.483-151.791c-0.015-7.349-0.031-14.727-0.067-24.685c-61.97,0.194-121.706,0.367-180.875,0.57
		c-5.073-28.146-4.602-29.977,19.436-30.061c118.261-0.44,236.535,0.235,354.793-0.131c1.373-0.016,2.727,0.008,4.108-0.004
		c10.046-0.082,19.215-0.129,19.324,14.404c0.158,14.431-8.466,14.557-18.83,14.564c-46.502-0.037-92.972,0.208-139.475,0.352
		C2670.515,272.74,2663.102,272.758,2652.406,272.79z"/>
</g>
</svg>
